<svg width="200" height="200" viewBox="0 0 200 200" fill="none" xmlns="http://www.w3.org/2000/svg">
<g id="bx:bxs-quote-alt-left">
<path id="Vector" d="M31.2284 103.821H31.2284C34.9044 103.82 38.5051 104.854 41.614 106.802C44.7229 108.751 47.2128 111.533 48.7961 114.828C50.3793 118.123 50.9914 121.796 50.5617 125.422C50.132 129.048 48.678 132.479 46.3676 135.319C44.0571 138.158 40.9844 140.29 37.5048 141.468C34.0252 142.645 30.2811 142.819 26.7058 141.97C23.1305 141.122 19.8705 139.285 17.3027 136.672C14.735 134.059 12.9644 130.778 12.1952 127.208L12.0885 126.713L12.0056 126.732L11.9749 126.527C11.9748 126.526 11.9748 126.526 11.9748 126.526C11.8862 125.923 11.7644 125.066 11.6993 124.186L11.6994 124.186L11.6983 124.174C11.5146 122.297 11.4261 119.69 11.5757 116.547C11.7562 113.414 12.2222 109.756 13.2619 105.91C13.8109 103.99 14.4814 102.018 15.3119 100.093C15.4095 99.8884 15.5061 99.6845 15.6025 99.4811C16.4338 97.7274 17.2427 96.0208 18.3765 94.452L18.3895 94.4339L18.4009 94.4147C19.4949 92.5758 20.9106 90.9502 22.3708 89.3761L22.3839 89.362L22.3959 89.3469C23.0332 88.5438 23.79 87.8603 24.5894 87.2037C24.8724 86.9712 25.1663 86.738 25.462 86.5032C25.9811 86.0912 26.5059 85.6746 26.9878 85.2499C27.7315 84.6342 28.5307 84.1292 29.3452 83.6538C29.6201 83.4933 29.9007 83.3341 30.1819 83.1745C30.7215 82.8684 31.263 82.5611 31.7699 82.2419L31.7699 82.242L31.7796 82.2357C32.497 81.7604 33.2486 81.418 34.0096 81.1136C34.2784 81.0061 34.5559 80.9006 34.8344 80.7948C35.3182 80.6109 35.8053 80.4258 36.2559 80.2264C36.621 80.0854 36.969 79.9446 37.3033 79.8094C38.321 79.3978 39.2112 79.0376 40.0679 78.8806L40.0838 78.8777L40.0995 78.8737C40.7763 78.7037 41.3945 78.5525 41.9613 78.414C42.3867 78.31 42.7831 78.213 43.1535 78.1205C43.1543 78.1204 43.155 78.1202 43.1558 78.12L45.3193 77.6014L47.2448 85.2472L45.5428 85.9501L45.5414 85.9507L43.1687 86.9217C42.6456 87.0925 42.1517 87.3499 41.6747 87.6264C41.4567 87.7528 41.2371 87.8862 41.0186 88.019C40.9949 88.0334 40.9711 88.0478 40.9474 88.0622C40.7037 88.2102 40.46 88.3574 40.2094 88.5002L40.1948 88.5085L40.1807 88.5178C39.8589 88.7311 39.5193 88.917 39.1521 89.1179C38.9782 89.2131 38.7982 89.3117 38.6109 89.4181C38.0506 89.7366 37.4625 90.1075 36.9449 90.6131C36.598 90.9318 36.2214 91.2233 35.8209 91.5331C35.6892 91.6351 35.5548 91.7391 35.4181 91.8467C34.8764 92.273 34.3157 92.7433 33.8351 93.3182L33.8293 93.3252L33.8237 93.3323C33.526 93.7161 33.1951 94.0635 32.8436 94.4326C32.7137 94.5691 32.5809 94.7085 32.4459 94.8538C31.9658 95.3708 31.4797 95.9418 31.1203 96.6349C31.1021 96.6623 31.0839 96.6899 31.0656 96.7174C30.3138 97.8522 29.5289 99.0369 29.015 100.402C28.4906 101.381 28.1662 102.459 27.8654 103.464L27.6409 104.214L28.416 104.102C28.4849 104.092 28.5536 104.082 28.622 104.072C29.504 103.944 30.3507 103.821 31.2284 103.821ZM76.6702 103.464L76.4456 104.214L77.2207 104.102C77.2896 104.092 77.3583 104.082 77.4268 104.072C78.3088 103.944 79.1555 103.821 80.0331 103.821C83.7091 103.82 87.3099 104.854 90.4188 106.802C93.5277 108.751 96.0176 111.533 97.6008 114.828C99.1841 118.123 99.7961 121.796 99.3664 125.422C98.9367 129.048 97.4827 132.479 95.1723 135.319C92.8618 138.158 89.7891 140.29 86.3095 141.468C82.8299 142.645 79.0858 142.819 75.5105 141.97C71.9352 141.122 68.6753 139.285 66.1075 136.672C63.5397 134.059 61.7691 130.778 61 127.208L60.8933 126.713L60.8104 126.732L60.7796 126.527C60.7796 126.526 60.7796 126.526 60.7796 126.526C60.691 125.923 60.5691 125.066 60.504 124.186L60.5042 124.186L60.503 124.174C60.3194 122.297 60.2308 119.69 60.3805 116.547C60.5609 113.414 61.0269 109.757 62.0666 105.91C62.6157 103.99 63.2862 102.018 64.1167 100.093C64.2142 99.8884 64.3109 99.6845 64.4073 99.4811C65.2385 97.7274 66.0474 96.0208 67.1812 94.452L67.1943 94.4339L67.2057 94.4147C68.2996 92.5758 69.7153 90.9502 71.1756 89.3761L71.1885 89.3622L71.2003 89.3474C71.8376 88.5463 72.5945 87.8638 73.3939 87.2077C73.6755 86.9766 73.9677 86.7448 74.2618 86.5114C74.7825 86.0983 75.309 85.6806 75.7925 85.2543C76.5362 84.6386 77.3354 84.1336 78.1499 83.6582C78.4248 83.4977 78.7055 83.3385 78.9866 83.179C79.5262 82.8728 80.0677 82.5655 80.5746 82.2463L80.5747 82.2465L80.5851 82.2395C81.302 81.7625 82.0542 81.4204 82.8159 81.1159C83.0771 81.0114 83.3462 80.9091 83.6163 80.8063C84.1081 80.6192 84.6034 80.4308 85.0615 80.2261C85.4263 80.0852 85.774 79.9445 86.108 79.8094C87.1257 79.3978 88.016 79.0376 88.8726 78.8806L88.8885 78.8777L88.9043 78.8737C89.5809 78.7037 90.1991 78.5526 90.7659 78.414C91.1913 78.31 91.5878 78.213 91.9582 78.1205C91.959 78.1204 91.9598 78.1202 91.9605 78.12L94.124 77.6014L96.0496 85.2472L94.3476 85.9501L94.3461 85.9507L91.9735 86.9217C91.4504 87.0925 90.9565 87.3499 90.4794 87.6264C90.2613 87.7528 90.0415 87.8864 89.823 88.0192L89.7522 88.0622C89.5085 88.2102 89.2648 88.3574 89.0141 88.5002L88.9995 88.5085L88.9855 88.5178C88.6636 88.7311 88.324 88.917 87.9568 89.1179C87.783 89.2131 87.6029 89.3117 87.4156 89.4181C86.8554 89.7366 86.2673 90.1075 85.7497 90.613C85.4028 90.9318 85.0262 91.2232 84.6257 91.5331C84.4939 91.6351 84.3595 91.7391 84.2228 91.8467C83.6811 92.273 83.1204 92.7433 82.6398 93.3182L82.634 93.3252L82.6285 93.3323C82.3307 93.7161 81.9998 94.0635 81.6483 94.4327C81.5184 94.5691 81.3856 94.7085 81.2507 94.8538C80.7705 95.3708 80.2844 95.9418 79.925 96.6348L79.8703 96.7174C79.1185 97.8523 78.3337 99.0369 77.8198 100.402C77.2953 101.381 76.9709 102.459 76.6702 103.464Z" fill="#0059AC" stroke="black"/>
</g>
</svg>
